<svg width="86" height="24" viewBox="0 0 86 24" fill="none" xmlns="http://www.w3.org/2000/svg">
<path d="M3 9L12 2L21 9V20C21 20.5304 20.7893 21.0391 20.4142 21.4142C20.0391 21.7893 19.5304 22 19 22H5C4.46957 22 3.96086 21.7893 3.58579 21.4142C3.21071 21.0391 3 20.5304 3 20V9Z" stroke="#E0A449" stroke-width="2" stroke-linecap="round" stroke-linejoin="round"/>
<path d="M9 22V12H15V22" stroke="#E0A449" stroke-width="2" stroke-linecap="round" stroke-linejoin="round"/>
<path d="M29.4091 18V6.36364H30.8182V11.5455H37.0227V6.36364H38.4318V18H37.0227V12.7955H30.8182V18H29.4091ZM44.6165 18.1818C43.8286 18.1818 43.1373 17.9943 42.5426 17.6193C41.9517 17.2443 41.4896 16.7197 41.1562 16.0455C40.8267 15.3712 40.6619 14.5833 40.6619 13.6818C40.6619 12.7727 40.8267 11.9792 41.1562 11.3011C41.4896 10.6231 41.9517 10.0966 42.5426 9.72159C43.1373 9.34659 43.8286 9.15909 44.6165 9.15909C45.4044 9.15909 46.0938 9.34659 46.6847 9.72159C47.2794 10.0966 47.7415 10.6231 48.071 11.3011C48.4044 11.9792 48.571 12.7727 48.571 13.6818C48.571 14.5833 48.4044 15.3712 48.071 16.0455C47.7415 16.7197 47.2794 17.2443 46.6847 17.6193C46.0938 17.9943 45.4044 18.1818 44.6165 18.1818ZM44.6165 16.9773C45.215 16.9773 45.7074 16.8239 46.0938 16.517C46.4801 16.2102 46.7661 15.8068 46.9517 15.3068C47.1373 14.8068 47.2301 14.2652 47.2301 13.6818C47.2301 13.0985 47.1373 12.5549 46.9517 12.0511C46.7661 11.5473 46.4801 11.1402 46.0938 10.8295C45.7074 10.5189 45.215 10.3636 44.6165 10.3636C44.018 10.3636 43.5256 10.5189 43.1392 10.8295C42.7528 11.1402 42.4669 11.5473 42.2812 12.0511C42.0956 12.5549 42.0028 13.0985 42.0028 13.6818C42.0028 14.2652 42.0956 14.8068 42.2812 15.3068C42.4669 15.8068 42.7528 16.2102 43.1392 16.517C43.5256 16.8239 44.018 16.9773 44.6165 16.9773ZM50.6179 18V9.27273H51.9134V10.6364H52.027C52.2088 10.1705 52.5024 9.80871 52.9077 9.55114C53.313 9.28977 53.7997 9.15909 54.3679 9.15909C54.9437 9.15909 55.4228 9.28977 55.8054 9.55114C56.1918 9.80871 56.4929 10.1705 56.7088 10.6364H56.7997C57.0232 10.1856 57.3584 9.82765 57.8054 9.5625C58.2524 9.29356 58.7884 9.15909 59.4134 9.15909C60.1937 9.15909 60.8319 9.40341 61.3281 9.89205C61.8243 10.3769 62.0724 11.1326 62.0724 12.1591V18H60.7315V12.1591C60.7315 11.5152 60.5554 11.0549 60.2031 10.7784C59.8509 10.5019 59.4361 10.3636 58.9588 10.3636C58.3452 10.3636 57.8698 10.5492 57.5327 10.9205C57.1955 11.2879 57.027 11.7538 57.027 12.3182V18H55.6634V12.0227C55.6634 11.5265 55.5024 11.1269 55.1804 10.8239C54.8584 10.517 54.4437 10.3636 53.9361 10.3636C53.5876 10.3636 53.2618 10.4564 52.9588 10.642C52.6596 10.8277 52.4171 11.0852 52.2315 11.4148C52.0497 11.7405 51.9588 12.1174 51.9588 12.5455V18H50.6179ZM68.1832 18.1818C67.3423 18.1818 66.617 17.9962 66.0071 17.625C65.401 17.25 64.9332 16.7273 64.6037 16.0568C64.2779 15.3826 64.1151 14.5985 64.1151 13.7045C64.1151 12.8106 64.2779 12.0227 64.6037 11.3409C64.9332 10.6553 65.3916 10.1212 65.9787 9.73864C66.5696 9.35227 67.259 9.15909 68.0469 9.15909C68.5014 9.15909 68.9503 9.23485 69.3935 9.38636C69.8366 9.53788 70.2401 9.78409 70.6037 10.125C70.9673 10.4621 71.2571 10.9091 71.473 11.4659C71.6889 12.0227 71.7969 12.7083 71.7969 13.5227V14.0909H65.0696V12.9318H70.4332C70.4332 12.4394 70.3348 12 70.1378 11.6136C69.9446 11.2273 69.6681 10.9223 69.3082 10.6989C68.9522 10.4754 68.5317 10.3636 68.0469 10.3636C67.5128 10.3636 67.0507 10.4962 66.6605 10.7614C66.2741 11.0227 65.9768 11.3636 65.7685 11.7841C65.5601 12.2045 65.456 12.6553 65.456 13.1364V13.9091C65.456 14.5682 65.5696 15.1269 65.7969 15.5852C66.0279 16.0398 66.348 16.3864 66.7571 16.625C67.1662 16.8598 67.6416 16.9773 68.1832 16.9773C68.5355 16.9773 68.8537 16.928 69.1378 16.8295C69.4257 16.7273 69.6738 16.5758 69.8821 16.375C70.0904 16.1705 70.2514 15.9167 70.3651 15.6136L71.6605 15.9773C71.5241 16.4167 71.295 16.803 70.973 17.1364C70.651 17.4659 70.2533 17.7235 69.7798 17.9091C69.3063 18.0909 68.7741 18.1818 68.1832 18.1818Z" fill="black"/>
</svg>
